<?xml version="1.0" encoding="utf-8"?>
<!-- Generator: Adobe Illustrator 19.0.0, SVG Export Plug-In . SVG Version: 6.00 Build 0)  -->
<svg version="1.1" id="Layer_1" xmlns="http://www.w3.org/2000/svg" xmlns:xlink="http://www.w3.org/1999/xlink" x="0px" y="0px"
	 viewBox="0 0 4509.5 1851.2" style="enable-background:new 0 0 4509.5 1851.2;" xml:space="preserve">
<style type="text/css">
	.st0{fill:#006448;}
	.st1{fill:#30A6A9;}
	.st2{fill:#500D6E;}
	.st3{fill:#0093BE;}
</style>
<g>
	<g>
		<g>
			<path class="st0" d="M1805.1,1210.9c19.8,26.9,27.2,50.7,22.7,72.1c-11.1,52.6-87.1,78.2-238.9,80.4v0.1l-12.2,0l-4.7,0l-16.8,0
				v-0.2c-151.8-2.2-227.8-27.8-238.9-80.4c-8.7-41.4,28-92.8,112.1-156.9c-8.6-1.1-17.2-2.2-25.9-3.2
				c-25.3,58.6-126.7,87.1-316.8,89.2v0.1l-11.1,0.1l-6.4,0l-17.3,0l0-0.2c-186.8-2.1-287.8-29.6-315.4-86.1c-7.6,1-15.2,2-22.9,3.1
				c81.3,62.7,116.7,113.2,108.1,153.9c-11.1,52.8-87.6,78.4-240.5,80.4l0,0.1l-10.6,0l-4.7,0l-15.2,0l0-0.1
				c-152.9-2-229.3-27.7-240.5-80.4c-3.8-18,0.8-37.5,13.9-59.1c-50.9,19.7-95.8,41.3-133.8,64.4c15.8,25,32,47.6,49.2,68.9
				c100.7,126.2,251.4,226.7,424.6,283l15.8,5.3l26.2,7.6c7,2,13.9,4.1,20.9,5.9c5.8,1.4,12,2.9,18.1,4.4
				c15.5,3.8,30.2,7.4,45.3,10.2c43.5,9.4,87.3,14.6,128.3,18.9c5,0.4,10.4,0.8,15.8,1.2c16.3,1.3,31.7,2.6,46.9,2.8
				c4.1,0.1,8,0.3,12,0.4c6.4,0.3,12.7,0.5,19.4,0.6l32.8,0l14,0c0.4,0,0.9-0.1,1.4-0.1l46.4-1.8l37.5-2.8
				c7.9-0.6,15.4-1.1,22.8-2.1c81.1-8.7,158-24,228.9-45.5c70.2-21.4,136.7-48.1,197.8-79.4c59.1-30.3,113.4-64.6,161.4-102
				c45.3-34.8,86.5-73.1,122.7-113.8c2.8-3.4,6-6.9,9.1-10.5c5.5-6.3,10.7-12.2,15.3-18.3c2.8-3.6,5.5-7.1,8.2-10.6
				c4.9-6.3,9.8-12.5,14.4-18.7c5.3-7.6,10.6-15.4,15.8-23C1900.8,1248.1,1855.5,1228.6,1805.1,1210.9z"/>
		</g>
	</g>
	<path class="st1" d="M1726.8,744.8"/>
	<path class="st1" d="M380.4,950.6c0.3,0.3,0.6,0.7,0.9,1c-0.3-0.4-0.5-0.8-0.8-1.1C380.5,950.5,380.5,950.5,380.4,950.6z"/>
	<path class="st2" d="M2072.9,929c0,0-0.1,5.1-0.4,14.9c-0.5,9.8,0,24.4-2.2,43.5c-2.8,38.3-9.6,94.3-31.1,163.9
		c-2.7,8.7-5.5,17.6-8.4,26.8c-3.4,9-6.9,18.3-10.4,27.7c-3.2,9.6-7.5,19.1-11.7,28.9c-4.3,9.8-8.2,19.9-13.5,29.9
		c-19.2,40.4-44.2,83-75.6,126.5c-31.5,43.4-69.8,87.6-116.1,130.4c-46.6,42.4-100.6,84.1-163.6,120.6
		c-62.9,36.4-134,68.6-211.9,93.2c-77.7,25-162.6,41.2-250.7,48.8c-11,1.2-22.1,1.6-33.2,2.2c-11.1,0.5-22.3,1.2-33.5,1.6
		c-11.2,0-22.5,0.1-33.7,0.1l-16.9,0.1l-3.1,0l-2-0.1l-4.1-0.1l-8.2-0.3c-10.9-0.5-21.9-0.9-32.9-1.4c-11.1-0.6-23-1.8-34.5-2.8
		c-23.4-1.6-45.9-4.9-68.8-7.8c-45.5-6.9-91-15.7-135.6-28c-22.5-5.5-44.4-12.9-66.6-19.7c-10.9-3.7-21.8-7.7-32.7-11.6l-16.3-5.9
		l-16-6.5c-85.9-33.9-166.5-78.4-240-130.4l-27.1-20c-9-6.8-17.4-14-26.1-21l-13.1-10.5l-12.5-11c-8.2-7.4-17-14.5-24.8-22.2
		c-32.7-30-62.1-62.5-90.2-95.8c-54.8-67.5-99.1-141.6-130-220c-15.8-39.1-27.4-79.4-36.4-120.2c-8.8-40.8-13.5-82.3-15.6-123.9
		l-0.2-31c-0.3-10,0.3-20.6,0.9-31.2c0.8-10.5,0.8-21.3,2.2-31.6l3.7-31.2c6.4-41.4,15.3-82.8,28.9-123.2
		c14-40.2,30.6-79.9,51.5-118.1c21.2-38,45.2-74.9,72.8-109.9C293.2,312.5,452.5,202,630,136.3l16.5-6.3l16.9-5.6
		c11.3-3.7,22.4-7.6,33.7-11.1c22.8-6.4,45.4-13.5,68.5-18.5c45.9-11.4,92.5-19.1,138.8-25c23.3-2.3,46.4-5.2,69.6-6.2
		c11.6-0.6,23.1-1.6,34.6-1.9c11.5-0.2,23-0.4,34.5-0.6l8.6-0.1l4.3-0.1l2.1,0l3.3,0l16.3,0.4c10.8,0.3,21.7,0.6,32.4,0.8
		c11.5,0.7,23,1.5,34.4,2.2c11.4,0.8,23,1.4,33.9,2.8c22.1,2.4,44.1,4.7,65.7,8.4c10.8,1.8,21.6,3.2,32.2,5.2
		c10.6,2.1,21.2,4.2,31.7,6.3l15.7,3.2l15.5,3.8c10.3,2.5,20.6,5,30.8,7.5c10.1,2.7,20.1,5.7,30,8.6c9.9,3,20,5.6,29.5,9.1
		c77.9,25.3,148.8,58.1,211.6,95c63,36.7,116.8,78.7,163.3,121.3c46.2,42.9,84.4,87.3,115.9,130.7c31.3,43.6,56.3,86.2,75.5,126.7
		c5.3,10,9.2,20.1,13.5,29.9c4.2,9.8,8.5,19.4,11.7,29c3.5,9.5,7,18.7,10.4,27.8c2.8,9.2,5.6,18.1,8.3,26.8
		c21.4,69.6,28,125.8,30.7,164c2.1,19.1,1.5,33.8,2,43.6C2072.8,923.8,2072.9,928.9,2072.9,929L2072.9,929z M2063.7,928.9
		c0,0-0.2-5-0.6-14.8c-0.6-9.8-0.3-24.3-2.6-43.2c-3.3-37.7-11.7-93.3-37-160.9c-11.9-33.9-29.8-70.2-52-108.3
		c-5.8-9.4-11.5-19.2-17.8-28.9c-6.6-9.6-13.3-19.3-20.1-29.2c-7.2-9.7-15-19.4-22.7-29.3c-7.5-10-16.6-19.5-25-29.5
		c-69.6-78.5-166.2-155.8-288-217.6c-61-30.6-128.2-57.1-200.2-78.4c-72-21.2-149.6-35.6-230.2-42.6c-10.2-1.2-20-1.5-29.9-2.1
		c-10-0.6-20-1.1-30-1.7c-10.8-0.2-21.6-0.3-32.5-0.5l-16.3-0.2l-14.4,0.4c-10.4,0.2-20.8,0.5-31.3,0.7c-10.5,0.3-20.9,1.2-31.4,1.8
		c-21,0.9-41.9,3.6-63,5.7c-42,5.5-84.3,11.9-126,22c-21,4.4-41.5,10.6-62.4,16c-10.3,3-20.5,6.4-30.8,9.5l-15.5,4.8l-15.2,5.5
		c-81.4,28.5-159,67.4-230,114.6c-35.6,23.5-68.7,49.8-100.4,77.5c-31.5,27.8-60.1,58.1-87.1,89.4C145.4,616.1,80.1,770,74.2,928.9
		c-0.9,39.6,0.5,79.4,6.2,118.9c6.4,39.4,15.1,78.6,28.2,117c13.7,38.1,29.9,75.7,50.1,111.8c20.6,35.9,43.8,70.7,70.4,103.6
		c105.6,132.3,261.9,232.2,430.3,286.9l15.7,5.2l16,4.6c10.6,3,21.2,6.2,31.9,9.1c21.6,5.1,42.7,10.9,64.4,14.8
		c42.9,9.2,86.4,14.5,129.2,19c21.5,1.6,43,3.8,63.8,4.1c10.6,0.3,20.6,1,31.5,1c11,0,22,0,32.9,0l8.2,0l4.1,0l2,0
		c0.9,0-0.5-0.1,1-0.1l15.7-0.6c10.4-0.4,20.8-0.8,31.2-1.2c10.3-0.7,20.6-1.5,30.9-2.3c10.2-0.8,20.5-1.4,30.6-2.7
		c81.1-8.7,158.7-24,230.8-45.9c72-22,139-49.1,199.8-80.2c60.8-31.2,115.5-66,163.3-103.2c48.1-36.9,89.5-76,124.3-115.3
		c8.4-10,17.4-19.5,25-29.5c7.7-10,15.5-19.6,22.7-29.4c6.8-9.9,13.5-19.7,20.1-29.3c6.3-9.7,11.9-19.4,17.8-28.9
		c22.2-38.2,40.1-74.5,52-108.5c25.1-67.6,33.4-123.3,36.6-160.9c2.3-18.8,1.9-33.5,2.5-43.3
		C2063.5,933.9,2063.7,928.8,2063.7,928.9L2063.7,928.9z"/>
	<path class="st3" d="M1201.7,535.1c0,72.9-59.1,132-132,132c-72.9,0-132-59.1-132-132c0-72.9,59.1-132,132-132
		C1142.6,403.1,1201.7,462.2,1201.7,535.1z"/>
	<path class="st0" d="M568.7,792.7c54,0,97.9,43.8,97.9,97.9c0,54-43.8,97.9-97.9,97.9c-54.1,0-97.9-43.8-97.9-97.9
		C470.8,836.5,514.6,792.7,568.7,792.7z"/>
	<path class="st0" d="M1570.2,792.7c54.1,0,97.9,43.8,97.9,97.9c0,54-43.8,97.9-97.9,97.9c-54,0-97.9-43.8-97.9-97.9
		C1472.3,836.5,1516.1,792.7,1570.2,792.7z"/>
	<path class="st3" d="M1024.4,817.6c0,0-1198.7,527.8-454.7,527.8C569.7,1345.3,189.4,1290.9,1024.4,817.6z"/>
	<path class="st3" d="M1112.6,817.6c0,0,1198.7,527.8,454.7,527.8C1567.3,1345.3,1947.6,1290.9,1112.6,817.6z"/>
	<path class="st2" d="M2031.3,817.6c0,0-1198.7,527.8-454.7,527.8C1576.7,1345.3,1196.4,1290.9,2031.3,817.6z"/>
	<path class="st2" d="M448.6,482.1c0,0,1617,711.9,613.3,711.9C1061.9,1194,1574.9,1120.7,448.6,482.1z"/>
	<path class="st2" d="M1687.9,482.1c0,0-1617,711.9-613.3,711.9C1074.6,1194,561.6,1120.7,1687.9,482.1z"/>
	<path class="st2" d="M105.6,817.6c0,0,1198.7,527.8,454.7,527.8C560.3,1345.3,940.6,1290.9,105.6,817.6z"/>
	<path class="st3" d="M2559.8,1165.1l0.6,1.7c0.8,44.5-12.8,79.3-40.7,104.5c-27.9,25.2-66.3,37.8-115.4,37.8
		c-50,0-90.4-16.1-121.1-48.3c-30.7-32.2-46.1-73.7-46.1-124.7v-82.7c0-50.8,15-92.4,45-124.7c30-32.4,69.3-48.5,118-48.5
		c50.8,0,90.5,12.4,119.1,37.2c28.6,24.8,42.6,59.8,41.8,104.8l-0.6,1.7H2479c0-26.7-6.5-46.6-19.3-59.7
		c-12.9-13.1-32.8-19.6-59.7-19.6c-25,0-44.5,10.1-58.6,30.2c-14,20.1-21.1,46.2-21.1,78v83.3c0,32.1,7.4,58.2,22.2,78.5
		c14.8,20.2,35.4,30.4,61.7,30.4c25,0,43.7-6.5,56-19.6c12.3-13.1,18.5-33.2,18.5-60.3H2559.8z"/>
	<path class="st3" d="M2601,1145.4c0-46.2,12.9-84,38.7-113.5c25.8-29.5,61.5-44.2,107.1-44.2c45.8,0,81.7,14.7,107.7,44.1
		c26,29.4,39,67.3,39,113.7v6c0,46.6-12.9,84.5-38.8,113.8c-25.9,29.3-61.6,44-107.2,44c-45.8,0-81.7-14.7-107.5-44
		c-25.9-29.3-38.8-67.2-38.8-113.8V1145.4z M2684.4,1151.4c0,28.2,5,50.9,14.9,68c9.9,17.1,26,25.6,48.1,25.6
		c21.6,0,37.4-8.6,47.4-25.8c10-17.2,15-39.8,15-67.9v-6c0-27.5-5.1-49.9-15.2-67.3c-10.1-17.4-26.1-26.1-47.8-26.1
		c-21.6,0-37.4,8.7-47.4,26.2c-10,17.5-15,39.9-15,67.2V1151.4z"/>
	<path class="st3" d="M3127.7,1303.1c-3.1-7.1-5.7-14.5-7.9-22.3c-2.2-7.8-3.8-15.8-4.7-24.1c-8.6,15.1-19.9,27.6-34.1,37.5
		c-14.1,9.9-30.9,14.9-50.4,14.9c-32.5,0-57.5-8.4-75-25.1c-17.6-16.7-26.4-39.5-26.4-68.3c0-30.4,11.7-53.9,35.1-70.6
		c23.4-16.7,57.5-25.1,102.4-25.1h47v-24.6c0-14.9-3.9-26.4-11.7-34.6c-7.8-8.2-19.5-12.3-34.9-12.3c-13.5,0-24,3.3-31.4,9.9
		c-7.4,6.6-11,15.6-11,27.1h-80.5l-0.6-1.7c-1.3-26.2,10.1-48.7,34.2-67.7c24.1-19,55.7-28.5,94.6-28.5c37.2,0,67.4,9.4,90.4,28.1
		c23,18.7,34.5,45.5,34.5,80.5v128c0,14.5,1.1,28.1,3.3,40.9c2.2,12.8,5.7,25.5,10.5,38.1H3127.7z M3051.2,1247.3
		c14.5,0,27.5-3.6,39-10.9c11.5-7.3,19.3-15.7,23.5-25.2v-43.8h-47c-17.7,0-31.2,4.4-40.2,13.2c-9.1,8.8-13.6,19.6-13.6,32.4
		c0,10.5,3.4,18.9,10.2,25.1C3029.8,1244.2,3039.2,1247.3,3051.2,1247.3z"/>
	<path class="st3" d="M3389.4,1245c14.5,0,26-4.4,34.6-13c8.6-8.7,12.9-20.3,12.9-34.8h76.2l0.6,1.7c0.8,31.3-10.9,57.5-34.9,78.6
		c-24.1,21.1-53.8,31.6-89.3,31.6c-45.8,0-81.2-14.7-106.2-44c-25-29.3-37.5-66.8-37.5-112.4v-8.6c0-45.4,12.5-82.9,37.4-112.4
		c24.9-29.5,60.2-44.2,105.8-44.2c37.8,0,68.2,10.9,91.3,32.6c23.1,21.8,34.3,50.4,33.5,85.9l-0.6,1.7h-76.2c0-16-4.3-29.4-12.7-40
		c-8.5-10.6-20.3-15.9-35.4-15.9c-21.6,0-36.9,8.6-46,25.9c-9.1,17.3-13.6,39.4-13.6,66.3v8.6c0,27.5,4.5,49.7,13.6,66.7
		C3351.9,1236.5,3367.4,1245,3389.4,1245z"/>
	<path class="st3" d="M3644,1032.5c9.8-14.1,21.7-25.1,35.8-33.1c14.1-7.9,29.8-11.9,47-11.9c32.3,0,57.6,10.7,76,32.2
		c18.4,21.5,27.6,54.6,27.6,99.5v183.9h-83.6v-184.4c0-24.1-3.9-41.1-11.6-51.1c-7.7-10-19.3-15-34.8-15c-12.8,0-23.9,2-33.4,6.2
		c-9.5,4.1-17.1,10-23.1,17.6v226.8h-83.6V856.4h83.6V1032.5z"/>
	<path class="st3" d="M4027.7,1309.2c-46.2,0-82.3-14.2-108.2-42.5c-26-28.3-39-64.9-39-109.5v-11.5c0-46.4,12.6-84.4,37.8-114
		c25.2-29.6,59.8-44.3,103.9-44.1c41.6,0,73.5,12.7,95.8,38.2c22.2,25.5,33.4,59.8,33.4,102.9v43.2h-184.7l-0.9,1.7
		c1.3,21.2,7.8,38.4,19.3,51.5s28.7,19.8,51.4,19.8c18.7,0,34.6-1.9,47.7-5.7c13.1-3.8,26.6-9.6,40.5-17.5l22.6,51.5
		c-12.4,10.1-29.2,18.6-50.4,25.5C4075.8,1305.7,4052.7,1309.2,4027.7,1309.2z M4022.2,1052c-16.8,0-29.7,5.8-38.8,17.3
		c-9.1,11.6-14.5,26.9-16.5,46l0.6,1.4h101.9v-6.3c0-18.1-3.7-32.4-11.2-42.8C4050.9,1057.2,4038.8,1052,4022.2,1052z"/>
	<path class="st3" d="M4367.6,1217.2c0-9.2-4.4-17-13.3-23.6c-8.9-6.6-25.3-12.4-49.4-17.3c-36.3-7.3-63.8-18.2-82.6-32.9
		c-18.8-14.7-28.2-34.6-28.2-59.8c0-26.5,11.3-49.2,33.8-67.9c22.5-18.7,52.5-28.1,89.9-28.1c39.1,0,70.5,9.4,94.1,28.1
		c23.6,18.7,34.9,42,33.9,69.9l-0.6,1.7h-80.7c0-12.4-4-22.5-12-30.4c-8-7.8-19.6-11.7-34.6-11.7c-13.4,0-24,3.3-31.8,10
		c-7.8,6.7-11.7,14.9-11.7,24.6c0,9.5,4.1,17.3,12.2,23.3c8.1,6,24.6,11.4,49.4,16.2c38,7.6,66.3,18.9,84.9,33.7
		c18.6,14.8,27.9,35.2,27.9,61.1c0,27.9-11.9,50.7-35.8,68.4c-23.9,17.8-55.4,26.6-94.5,26.6c-41.2,0-73.8-10.5-97.8-31.4
		c-24-20.9-35.4-44.7-34.2-71.4l0.6-1.7h76.5c0.6,16.6,6,28.6,16.3,36.1c10.3,7.5,23.8,11.2,40.4,11.2c15.5,0,27.2-3.1,35.4-9.3
		C4363.5,1236.4,4367.6,1227.9,4367.6,1217.2z"/>
	<path class="st2" d="M2389.1,1437v125c0,21.1-6.9,37.7-20.8,49.6c-13.9,12-31.7,17.9-53.6,17.9c-21.6,0-39.1-6-52.7-17.9
		c-13.6-11.9-20.3-28.5-20.3-49.6v-125h31.7v125c0,13.5,3.8,23.9,11.3,31.2c7.6,7.3,17.6,11,30,11c12.9,0,23.2-3.7,31-11
		c7.8-7.3,11.7-17.8,11.7-31.2v-125H2389.1z"/>
	<path class="st2" d="M2451.5,1485.7l1.8,20.3c4.6-7.2,10.4-12.8,17.4-16.9c7-4,14.9-6.1,23.7-6.1c14.7,0,26.1,4.5,34.4,13.6
		c8.2,9,12.3,23.2,12.3,42.4v87.7h-31.7v-87.5c0-10.9-2.1-18.7-6.4-23.3c-4.3-4.6-10.7-6.9-19.3-6.9c-6.8,0-12.7,1.3-17.6,3.8
		c-5,2.6-8.9,6.1-11.9,10.6v103.2h-31.7v-141H2451.5z"/>
	<path class="st2" d="M2607.8,1451.2h-31.7v-27.8h31.7V1451.2z M2607.8,1626.8h-31.7v-141h31.7V1626.8z"/>
	<path class="st2" d="M2637.4,1558.2c0-22.5,4.8-40.7,14.5-54.4c9.6-13.8,23.2-20.7,40.7-20.7c7.6,0,14.5,1.5,20.5,4.6
		c6,3.1,11.3,7.5,15.7,13.2v-77.6h31.7v203.4h-25.7l-3.8-17.9c-4.5,6.7-10,11.8-16.4,15.3c-6.4,3.5-13.9,5.3-22.3,5.3
		c-17.3,0-30.8-6.3-40.4-18.9c-9.6-12.6-14.5-29.2-14.5-49.7V1558.2z M2669.1,1561c0,13,2.5,23.4,7.5,31.2
		c5,7.7,12.9,11.6,23.8,11.6c6.7,0,12.4-1.4,17-4.3s8.5-7,11.4-12.3v-61.5c-3-5.2-6.8-9.3-11.5-12.2c-4.7-2.9-10.3-4.4-16.7-4.4
		c-10.8,0-18.7,4.5-23.9,13.6c-5.1,9.1-7.7,20.9-7.7,35.5V1561z"/>
	<path class="st2" d="M2788.6,1555c0-21,5.8-38.3,17.3-51.7c11.5-13.4,27.3-20.1,47.3-20.1c20.2,0,36.1,6.7,47.6,20.1
		c11.5,13.4,17.3,30.7,17.3,51.7v2.7c0,21.2-5.8,38.5-17.3,51.8c-11.5,13.3-27.3,20-47.4,20c-20.2,0-36-6.7-47.5-20.1
		c-11.5-13.4-17.3-30.6-17.3-51.8V1555z M2820.3,1557.7c0,13.8,2.7,25,8.1,33.6c5.4,8.6,13.7,12.9,25,12.9c11,0,19.3-4.3,24.8-13
		c5.5-8.6,8.3-19.8,8.3-33.6v-2.7c0-13.5-2.8-24.6-8.3-33.3c-5.5-8.7-13.9-13.1-25.1-13.1c-11,0-19.3,4.4-24.7,13.1
		c-5.4,8.7-8.1,19.8-8.1,33.3V1557.7z"/>
	<path class="st2" d="M3025,1588.2c0-4.9-2.1-8.9-6.2-12.1c-4.1-3.2-11.9-6-23.4-8.5c-16.6-3.4-29.3-8.4-38.1-15
		c-8.8-6.6-13.2-15.5-13.2-26.6c0-11.8,5-21.9,15-30.3c10-8.4,23.2-12.6,39.5-12.6c16.9,0,30.4,4.3,40.7,13
		c10.3,8.7,15.2,19.1,14.8,31.2l-0.3,0.8h-30.4c0-5.7-2.3-10.7-6.8-14.9c-4.5-4.2-10.6-6.3-18.1-6.3c-7.7,0-13.5,1.7-17.5,5.2
		c-4,3.5-6,7.7-6,12.8c0,4.8,1.9,8.6,5.6,11.5c3.7,2.9,11.4,5.4,23.1,7.7c17.3,3.5,30.3,8.6,39.1,15.3c8.8,6.7,13.2,15.8,13.2,27.1
		c0,12.7-5.2,23.1-15.7,31.1c-10.5,8-24.3,12.1-41.4,12.1c-18.3,0-32.8-4.7-43.4-14.1c-10.6-9.4-15.6-20.2-15.1-32.3l0.3-0.8h29.5
		c0.3,8.2,3.3,14.1,8.9,17.9c5.6,3.7,12.3,5.6,20.3,5.6c8.1,0,14.3-1.6,18.8-4.8C3022.7,1597.8,3025,1593.5,3025,1588.2z"/>
	<path class="st2" d="M3274.6,1561c0,20.5-4.8,37.1-14.5,49.7c-9.6,12.6-23.1,18.9-40.3,18.9c-8,0-15.1-1.4-21.2-4.3
		c-6.2-2.9-11.5-7.1-15.9-12.6v68.4H3151v-195.3h26.7l3.1,17.7c4.5-6.6,10-11.6,16.4-15.1c6.4-3.5,13.8-5.2,22.2-5.2
		c17.4,0,30.9,6.9,40.6,20.7c9.7,13.8,14.5,31.9,14.5,54.4V1561z M3243.1,1558.2c0-14.4-2.7-26.2-8.2-35.4
		c-5.4-9.2-13.5-13.8-24.3-13.8c-6.6,0-12.2,1.4-16.8,4.2c-4.6,2.8-8.3,6.8-11.1,11.8v63.7c2.8,5,6.5,8.8,11.1,11.4
		c4.6,2.6,10.3,4,17.1,4c10.8,0,18.8-4,24.2-11.9c5.3-8,8-18.4,8-31.4V1558.2z"/>
	<path class="st2" d="M3296.4,1555c0-21,5.8-38.3,17.3-51.7c11.5-13.4,27.3-20.1,47.2-20.1c20.2,0,36.1,6.7,47.6,20.1
		c11.5,13.4,17.3,30.7,17.3,51.7v2.7c0,21.2-5.8,38.5-17.3,51.8c-11.5,13.3-27.3,20-47.4,20c-20.2,0-36-6.7-47.5-20.1
		c-11.5-13.4-17.3-30.6-17.3-51.8V1555z M3328.1,1557.7c0,13.8,2.7,25,8.1,33.6c5.4,8.6,13.7,12.9,25,12.9c11,0,19.3-4.3,24.8-13
		c5.5-8.6,8.3-19.8,8.3-33.6v-2.7c0-13.5-2.7-24.6-8.3-33.3c-5.5-8.7-13.9-13.1-25.1-13.1c-11,0-19.3,4.4-24.7,13.1
		c-5.4,8.7-8.2,19.8-8.2,33.3V1557.7z"/>
	<path class="st2" d="M3523.8,1514.3l-13.6-0.5c-6.2,0-11.3,1.3-15.5,3.9c-4.1,2.6-7.3,6.3-9.6,11.1v98h-31.7v-141h28.9l2.1,20.5
		c3.6-7.2,8.1-12.9,13.7-17c5.6-4.1,12.1-6.1,19.4-6.1c1.9,0,3.7,0.1,5.3,0.5c1.6,0.3,3.2,0.7,4.6,1.1L3523.8,1514.3z"/>
	<path class="st2" d="M3713,1583h0.8l54.9-146h40.4v189.8h-31.7v-136.4l-0.8-0.1l-52.3,136.5h-21.8l-53.2-139.1l-0.8,0.3v138.8H3617
		V1437h41.6L3713,1583z"/>
	<path class="st2" d="M3905.7,1629.5c-20.6,0-36.7-6.5-48.3-19.5c-11.6-13-17.4-29.8-17.4-50.5v-5.2c0-20.7,5.8-37.7,17.4-51.2
		c11.6-13.4,26.6-20.1,44.9-20c19,0,33.3,5.8,43,17.5c9.7,11.7,14.6,27.3,14.6,46.9v17.1h-87.2l-0.3,0.7c0.3,11.6,3.4,20.9,9.1,28.2
		c5.7,7.2,14.4,10.8,25.9,10.8c8.6,0,16.1-1,22.4-3.1c6.3-2.1,12.2-5.1,17.5-9l10.3,20.7c-5.4,4.7-12.5,8.6-21.4,11.9
		C3927.5,1627.9,3917.3,1629.5,3905.7,1629.5z M3902.3,1508.6c-8.3,0-14.9,3-19.8,8.9c-5,6-8,13.7-9.3,23.3l0.3,0.7h55.1v-2.5
		c0-9-2.1-16.4-6.3-22C3918.1,1511.4,3911.5,1508.6,3902.3,1508.6z M3909.5,1425.5h35.8l0.3,0.8l-35.6,33.9h-25.4L3909.5,1425.5z"/>
	<path class="st2" d="M4036.2,1534.1l26.1-48.4h36.4l-44.3,69.7l45.6,71.3h-36l-27.2-49.5l-27.2,49.5h-36.2l45.6-71.3l-44.3-69.7h36
		L4036.2,1534.1z"/>
	<path class="st2" d="M4154.7,1451.2H4123v-27.8h31.7V1451.2z M4154.7,1626.8H4123v-141h31.7V1626.8z"/>
	<path class="st2" d="M4247.7,1604.2c7.2,0,13.3-2.3,18.3-6.8c5-4.5,7.5-10.3,7.5-17.2h28.7l0.3,0.8c0.3,13.2-4.9,24.6-15.7,34.2
		c-10.8,9.6-23.8,14.3-39,14.3c-20.3,0-36-6.7-47.1-20.1c-11-13.4-16.5-30.4-16.5-50.8v-4.6c0-20.3,5.5-37.2,16.5-50.7
		c11-13.5,26.7-20.2,46.9-20.2c16.4,0,29.8,4.9,40,14.8c10.3,9.9,15.2,22.4,14.9,37.6l-0.3,0.8h-28.7c0-7.7-2.4-14.3-7.2-19.7
		c-4.8-5.4-11-8.1-18.8-8.1c-11.3,0-19.4,4.4-24.4,13.1c-5,8.7-7.4,19.5-7.4,32.4v4.6c0,13.1,2.5,24,7.4,32.7
		C4228,1599.9,4236.2,1604.2,4247.7,1604.2z"/>
	<path class="st2" d="M4323.1,1555c0-21,5.8-38.3,17.3-51.7c11.5-13.4,27.3-20.1,47.2-20.1c20.3,0,36.1,6.7,47.7,20.1
		c11.5,13.4,17.3,30.7,17.3,51.7v2.7c0,21.2-5.8,38.5-17.3,51.8c-11.5,13.3-27.3,20-47.4,20c-20.2,0-36-6.7-47.5-20.1
		c-11.5-13.4-17.3-30.6-17.3-51.8V1555z M4354.8,1557.7c0,13.8,2.7,25,8.1,33.6c5.4,8.6,13.7,12.9,25,12.9c11,0,19.3-4.3,24.8-13
		c5.5-8.6,8.3-19.8,8.3-33.6v-2.7c0-13.5-2.8-24.6-8.3-33.3c-5.5-8.7-13.9-13.1-25.1-13.1c-11,0-19.3,4.4-24.7,13.1
		c-5.4,8.7-8.1,19.8-8.1,33.3V1557.7z"/>
	<g>
		<path class="st0" d="M2696.2,796.3h-110.8V566.7h-225.1v229.6h-110.8V243.7h110.8v237.6h225.1V243.7h110.8V796.3z"/>
		<path class="st0" d="M2967.6,804.3c-61.2,0-109.1-18.8-143.5-56.4c-34.4-37.6-51.6-86-51.6-145.2v-15.2
			c0-61.5,16.7-111.8,50.1-151.1c33.4-39.2,79.3-58.7,137.8-58.5c55.2,0,97.5,16.9,127,50.7c29.5,33.8,44.2,79.3,44.2,136.5v57.3
			h-244.8l-1.1,2.3c1.8,28.1,10.3,50.9,25.6,68.3c15.3,17.5,38,26.2,68.1,26.2c24.8,0,45.9-2.5,63.2-7.6
			c17.3-5.1,35.2-12.8,53.7-23.2l30,68.3c-16.5,13.4-38.7,24.7-66.8,33.8C3031.3,799.8,3000.7,804.3,2967.6,804.3z M2960.4,463.5
			c-22.3,0-39.4,7.7-51.4,23c-12,15.3-19.3,35.6-21.8,60.9l0.8,1.9H3023v-8.4c0-24-4.9-43-14.8-56.7
			C2998.3,470.3,2982.4,463.5,2960.4,463.5z"/>
		<path class="st0" d="M3438.2,796.3c-4-9.4-7.5-19.2-10.4-29.6c-2.9-10.4-5-21-6.3-31.9c-11.4,20-26.5,36.6-45.2,49.7
			c-18.7,13.2-41,19.7-66.8,19.7c-43,0-76.2-11.1-99.4-33.2c-23.3-22.1-34.9-52.3-34.9-90.5c0-40.2,15.5-71.4,46.5-93.6
			c31-22.1,76.2-33.2,135.7-33.2h62.2v-32.6c0-19.7-5.2-35-15.6-45.9c-10.4-10.9-25.8-16.3-46.3-16.3c-18,0-31.8,4.4-41.6,13.1
			c-9.7,8.7-14.6,20.7-14.6,35.9h-106.7l-0.8-2.3c-1.8-34.7,13.3-64.6,45.4-89.8c32-25.2,73.8-37.8,125.5-37.8
			c49.3,0,89.3,12.4,119.7,37.2c30.5,24.8,45.7,60.4,45.7,106.7v169.7c0,19.2,1.5,37.3,4.4,54.3c2.9,17,7.5,33.8,13.9,50.5H3438.2z
			 M3336.9,722.3c19.2,0,36.4-4.8,51.6-14.4c15.2-9.6,25.6-20.7,31.1-33.4v-58.1h-62.2c-23.5,0-41.3,5.8-53.3,17.5
			c-12,11.6-18,25.9-18,42.9c0,13.9,4.5,25,13.5,33.2C3308.5,718.2,3321,722.3,3336.9,722.3z"/>
		<path class="st0" d="M3730.1,796.3h-110.8V204.2h110.8V796.3z"/>
		<path class="st0" d="M3954.1,285.1v100.6h69.5v77.8h-69.5v209.1c0,15.9,3.3,27.3,10.1,34.2c6.7,6.8,15.5,10.3,26.4,10.3
			c5.8,0,10.9-0.3,15.2-1c4.3-0.6,9.2-1.7,14.8-3.2l9.1,80.1c-11.1,3.8-22,6.6-32.5,8.5c-10.5,1.9-22,2.8-34.4,2.8
			c-38.2,0-67.6-10.5-88.2-31.5c-20.6-21-30.9-54.3-30.9-99.8V463.5h-60v-77.8h60V285.1H3954.1z"/>
		<path class="st0" d="M4200,437.6c12.9-18.7,28.7-33.3,47.5-43.8c18.7-10.5,39.5-15.8,62.2-15.8c42.8,0,76.4,14.2,100.8,42.7
			c24.4,28.5,36.6,72.4,36.6,131.9v243.7h-110.8V551.9c0-31.9-5.1-54.5-15.4-67.8c-10.3-13.3-25.6-19.9-46.1-19.9
			c-17,0-31.7,2.7-44.2,8.2c-12.5,5.4-22.7,13.2-30.6,23.3v300.6h-110.8V204.2H4200V437.6z"/>
	</g>
</g>
</svg>
